<svg xmlns="http://www.w3.org/2000/svg" xmlns:xlink="http://www.w3.org/1999/xlink">

<symbol id="linkedin" fill-rule="evenodd" clip-rule="evenodd" stroke-linejoin="round" stroke-miterlimit="1.414">
  <path d="M13.632 13.635h-2.37V9.922c0-.886-.018-2.025-1.234-2.025-1.235 0-1.424.964-1.424 1.96v3.778h-2.37V6H8.51v1.04h.03c.318-.6 1.092-1.233 2.247-1.233 2.4 0 2.845 1.58 2.845 3.637v4.188zM3.558 4.955c-.762 0-1.376-.617-1.376-1.377 0-.758.614-1.375 1.376-1.375.76 0 1.376.617 1.376 1.375 0 .76-.617 1.377-1.376 1.377zm1.188 8.68H2.37V6h2.376v7.635zM14.816 0H1.18C.528 0 0 .516 0 1.153v13.694C0 15.484.528 16 1.18 16h13.635c.652 0 1.185-.516 1.185-1.153V1.153C16 .516 15.467 0 14.815 0z" fill-rule="nonzero"/>
</symbol>

<symbol id="podcast" fill-rule="evenodd" clip-rule="evenodd" stroke-linejoin="round" stroke-miterlimit="1.414" viewBox="60 0 100 100">
  <path d="M76.5,37.1c-1.8,0-3.3,1.4-3.3,3.2v8.3c0,12.6-10.3,23.1-23.1,23.1c-12.8,0-23.3-10.5-23.3-23.1v-8.3c0-1.8-1.5-3.2-3.3-3.2  c-1.8,0-3.2,1.4-3.2,3.2v8.3C20.3,63.8,32,76.3,46.8,78c0,0,0,0.1,0,0.1v10.4H33.9c-1.8,0-3.2,1.5-3.2,3.3c0,1.8,1.4,3.2,3.2,3.2H66  c1.8,0,3.2-1.4,3.2-3.2c0-1.8-1.4-3.3-3.2-3.3H53.2V78.2c0-0.1,0-0.1,0-0.1C68,76.3,79.7,63.8,79.7,48.6v-8.3  C79.7,38.6,78.2,37.1,76.5,37.1L76.5,37.1z M50,65.9c9.8,0,17.6-8,17.6-17.7l0.1-25.5C67.7,13,59.9,5,50.1,5  c-9.8,0-17.8,8-17.8,17.8v25.5C32.2,58,40.2,65.9,50,65.9z"></path>
</symbol>

<!-- Credits to https://github.com/Alhadis  -->
<symbol id="speakerdeck" fill-rule="evenodd" clip-rule="evenodd" stroke-linejoin="round" stroke-miterlimit="1.414" viewBox="350 0 434 512">
  <path d="M0,270.3823547h433.6066895c-0.9926147,11.850769-6.9824524,19.23703-19.1296997,21.122406H15.1443481C5.8129573,288.9810486,0.0676743,282.6754761,0,270.3823547z M207.1645966,2.7099292c-11.1361389-3.4937053-51.3310394-4.4849119-59.1743622,2.4019406c-7.4243011,6.5188437-9.0014954,9.2825899-19.5321655,11.1573658H86.6740875c-16.2299576,0-29.3869362,13.1569805-29.3869362,29.3869381v26.6539917H43.4403992c-12.8101559-0.5890503-22.5770016,11.7458267-23.0932198,21.8975372l-8.39114,162.2258911h408.897522l-7.173584-163.0010223c-0.6055298-11.4627609-12.3986511-21.579155-23.5136108-21.122406H70.4388199V44.4605675c0-8.9664879,7.2687759-16.2352638,16.2352676-16.2352638h46.7324371c11.3350067,0,7.8973846,14.3399086,24.8250275,14.3399086h42.1681671c5.0046692,0,9.9587402-1.5156326,13.875351-4.6312256C223.4161987,31.547327,223.0072632,7.2243409,207.1645966,2.7099292z M236.2637177,478.5230103V300.4535217h-45.4336395v178.0694885h-83.8049164V512h213.0435638v-33.4769897H236.2637177z"/>
</symbol>

<!-- Credits to Wikimedia Commons (https://commons.wikimedia.org/wiki/File:Home_free_icon.svg)  -->
<symbol id="home" fill-rule="evenodd" clip-rule="evenodd" stroke-linejoin="round" stroke-miterlimit="1.414" viewBox="300 0 460.298 460.297">
  <path d="M230.149,120.939L65.986,256.274c0,0.191-0.048,0.472-0.144,0.855c-0.094,0.38-0.144,0.656-0.144,0.852v137.041 c0,4.948,1.809,9.236,5.426,12.847c3.616,3.613,7.898,5.431,12.847,5.431h109.63V303.664h73.097v109.64h109.629 c4.948,0,9.236-1.814,12.847-5.435c3.617-3.607,5.432-7.898,5.432-12.847V257.981c0-0.76-0.104-1.334-0.288-1.707L230.149,120.939 z"/>
	<path d="M457.122,225.438L394.6,173.476V56.989c0-2.663-0.856-4.853-2.574-6.567c-1.704-1.712-3.894-2.568-6.563-2.568h-54.816 c-2.666,0-4.855,0.856-6.57,2.568c-1.711,1.714-2.566,3.905-2.566,6.567v55.673l-69.662-58.245 c-6.084-4.949-13.318-7.423-21.694-7.423c-8.375,0-15.608,2.474-21.698,7.423L3.172,225.438c-1.903,1.52-2.946,3.566-3.14,6.136 c-0.193,2.568,0.472,4.811,1.997,6.713l17.701,21.128c1.525,1.712,3.521,2.759,5.996,3.142c2.285,0.192,4.57-0.476,6.855-1.998 L230.149,95.817l197.57,164.741c1.526,1.328,3.521,1.991,5.996,1.991h0.858c2.471-0.376,4.463-1.43,5.996-3.138l17.703-21.125 c1.522-1.906,2.189-4.145,1.991-6.716C460.068,229.007,459.021,226.961,457.122,225.438z"/>
</symbol>
</svg>

